<?xml version="1.0" encoding="UTF-8"?>
<!DOCTYPE svg PUBLIC "-//W3C//DTD SVG 1.1//EN" "http://www.w3.org/Graphics/SVG/1.1/DTD/svg11.dtd">
<svg xmlns="http://www.w3.org/2000/svg" version="1.1" width="434px" height="178px" style="shape-rendering:geometricPrecision; text-rendering:geometricPrecision; image-rendering:optimizeQuality; fill-rule:evenodd; clip-rule:evenodd" xmlns:xlink="http://www.w3.org/1999/xlink">
<g><path style="opacity:1" fill="#030303" d="M 281.5,1.5 C 282.833,1.5 284.167,1.5 285.5,1.5C 285.5,56.8333 285.5,112.167 285.5,167.5C 281.167,167.5 276.833,167.5 272.5,167.5C 270.5,167.5 268.5,167.5 266.5,167.5C 266.832,120.664 266.499,73.997 265.5,27.5C 256.314,31.2636 247.314,35.2636 238.5,39.5C 237.508,39.3284 236.842,39.6618 236.5,40.5C 235.609,41.1098 234.609,41.4431 233.5,41.5C 232.184,38.9134 231.517,35.9134 231.5,32.5C 231.539,29.0832 231.873,25.7498 232.5,22.5C 248.523,14.9315 264.856,7.93153 281.5,1.5 Z"/></g>
<g><path style="opacity:0.68" fill="#4b4c65" d="M 281.5,1.5 C 282.919,0.548855 284.585,0.215521 286.5,0.5C 286.5,2.83333 286.5,5.16667 286.5,7.5C 286.832,61.0026 286.499,114.336 285.5,167.5C 285.5,112.167 285.5,56.8333 285.5,1.5C 284.167,1.5 282.833,1.5 281.5,1.5 Z"/></g>
<g><path style="opacity:0.894" fill="#272727" d="M 141.5,7.5 C 141.167,7.5 140.833,7.5 140.5,7.5C 140.5,5.83333 140.5,4.16667 140.5,2.5C 133.833,2.5 127.167,2.5 120.5,2.5C 120.5,57.5 120.5,112.5 120.5,167.5C 119.501,112.336 119.168,57.0025 119.5,1.5C 126.833,1.5 134.167,1.5 141.5,1.5C 141.5,3.5 141.5,5.5 141.5,7.5 Z"/></g>
<g><path style="opacity:1" fill="#000000" d="M 140.5,7.5 C 140.5,54.8333 140.5,102.167 140.5,149.5C 143.167,149.5 145.833,149.5 148.5,149.5C 167.5,149.5 186.5,149.5 205.5,149.5C 205.5,155.5 205.5,161.5 205.5,167.5C 179.167,167.5 152.833,167.5 126.5,167.5C 124.5,167.5 122.5,167.5 120.5,167.5C 120.5,112.5 120.5,57.5 120.5,2.5C 127.167,2.5 133.833,2.5 140.5,2.5C 140.5,4.16667 140.5,5.83333 140.5,7.5 Z"/></g>
<g><path style="opacity:0.998" fill="#6581ff" d="M 286.5,7.5 C 287.167,7.5 287.833,7.5 288.5,7.5C 289.833,7.5 291.167,7.5 292.5,7.5C 292.5,62.8333 292.5,118.167 292.5,173.5C 285.833,173.5 279.167,173.5 272.5,173.5C 272.5,171.5 272.5,169.5 272.5,167.5C 276.833,167.5 281.167,167.5 285.5,167.5C 286.499,114.336 286.832,61.0026 286.5,7.5 Z"/></g>
<g><path style="opacity:0.692" fill="#a0b2ff" d="M 288.5,7.5 C 289.919,6.54885 291.585,6.21552 293.5,6.5C 293.832,62.3358 293.499,118.002 292.5,173.5C 292.5,118.167 292.5,62.8333 292.5,7.5C 291.167,7.5 289.833,7.5 288.5,7.5 Z"/></g>
<g><path style="opacity:1" fill="#7288fc" d="M 140.5,7.5 C 140.833,7.5 141.167,7.5 141.5,7.5C 143.833,7.5 146.167,7.5 148.5,7.5C 148.5,54.8333 148.5,102.167 148.5,149.5C 145.833,149.5 143.167,149.5 140.5,149.5C 140.5,102.167 140.5,54.8333 140.5,7.5 Z"/></g>
<g><path style="opacity:0.549" fill="#7d7d7d" d="M 232.5,22.5 C 231.873,25.7498 231.539,29.0832 231.5,32.5C 231.517,35.9134 232.184,38.9134 233.5,41.5C 232.828,42.2674 231.995,42.9341 231,43.5C 230.833,40 230.667,36.5 230.5,33C 230.512,29.0982 231.179,25.5982 232.5,22.5 Z"/></g>
<g><path style="opacity:0.996" fill="#6f85fa" d="M 265.5,27.5 C 265.94,31.1785 265.273,34.5118 263.5,37.5C 256.229,41.5959 248.562,44.9292 240.5,47.5C 238.631,45.3647 237.964,42.6981 238.5,39.5C 247.314,35.2636 256.314,31.2636 265.5,27.5 Z"/></g>
<g><path style="opacity:0.695" fill="#525255" d="M 265.5,27.5 C 266.499,73.997 266.832,120.664 266.5,167.5C 266.165,123.99 265.165,80.657 263.5,37.5C 265.273,34.5118 265.94,31.1785 265.5,27.5 Z"/></g>
<g><path style="opacity:0.475" fill="#aebbf7" d="M 236.5,40.5 C 236.842,39.6618 237.508,39.3284 238.5,39.5C 237.964,42.6981 238.631,45.3647 240.5,47.5C 239.828,48.2674 238.995,48.9341 238,49.5C 237.819,46.3054 237.319,43.3054 236.5,40.5 Z"/></g>
<g><path style="opacity:0.18" fill="#c2c3c4" d="M 82.5,43.5 C 83.209,42.596 84.209,42.2627 85.5,42.5C 85.5,45.5 85.5,48.5 85.5,51.5C 85.5,52.1667 85.1667,52.5 84.5,52.5C 85.0545,48.9878 84.3878,45.9878 82.5,43.5 Z"/></g>
<g><path style="opacity:1" fill="#09090a" d="M 82.5,43.5 C 84.3878,45.9878 85.0545,48.9878 84.5,52.5C 84.8256,56.8839 84.4922,61.2172 83.5,65.5C 65.1667,74.6667 46.8333,83.8333 28.5,93C 27.1667,93.6667 27.1667,94.3333 28.5,95C 31.5266,96.5133 34.5266,98.0133 37.5,99.5C 53.359,106.93 69.0257,114.597 84.5,122.5C 84.825,130.019 84.4916,137.352 83.5,144.5C 59.9667,131.234 36.3,118.234 12.5,105.5C 10.326,105.25 8.65938,104.25 7.5,102.5C 7.21139,96.4093 7.54472,90.4093 8.5,84.5C 17.6766,78.4089 27.3432,73.0755 37.5,68.5C 39.0269,68.573 40.0269,67.9063 40.5,66.5C 51.9091,59.773 63.5758,53.4397 75.5,47.5C 77.0269,47.573 78.0269,46.9063 78.5,45.5C 79.5137,44.3263 80.847,43.6596 82.5,43.5 Z"/></g>
<g><path style="opacity:1" fill="#0d0d0e" d="M 425.5,87.5 C 425.827,92.544 425.494,97.544 424.5,102.5C 399.28,115.608 374.28,128.941 349.5,142.5C 347.95,143.441 346.284,144.107 344.5,144.5C 343.189,137.265 343.189,129.932 344.5,122.5C 362.853,112.991 381.52,103.991 400.5,95.5C 402.87,95.0175 403.537,93.8508 402.5,92C 385.18,83.7306 367.846,75.5639 350.5,67.5C 348.072,66.7878 345.739,65.7878 343.5,64.5C 342.335,56.855 342.169,49.1883 343,41.5C 369.5,55.3333 396,69.1667 422.5,83C 424.439,83.9078 425.439,85.4078 425.5,87.5 Z"/></g>
<g><path style="opacity:0.843" fill="#777777" d="M 78.5,45.5 C 78.0269,46.9063 77.0269,47.573 75.5,47.5C 75.9731,46.0937 76.9731,45.427 78.5,45.5 Z"/></g>
<g><path style="opacity:0.451" fill="#becaff" d="M 89.5,49.5 C 90.209,48.596 91.209,48.2627 92.5,48.5C 92.8254,56.3516 92.492,64.0182 91.5,71.5C 92.1299,63.7572 91.4633,56.4238 89.5,49.5 Z"/></g>
<g><path style="opacity:0.998" fill="#6f85fb" d="M 89.5,49.5 C 91.4633,56.4238 92.1299,63.7572 91.5,71.5C 73.4655,80.8499 55.4655,90.1833 37.5,99.5C 34.5266,98.0133 31.5266,96.5133 28.5,95C 27.1667,94.3333 27.1667,93.6667 28.5,93C 46.8333,83.8333 65.1667,74.6667 83.5,65.5C 84.4922,61.2172 84.8256,56.8839 84.5,52.5C 85.1667,52.5 85.5,52.1667 85.5,51.5C 86.6049,50.3995 87.9382,49.7329 89.5,49.5 Z"/></g>
<g><path style="opacity:0.847" fill="#777777" d="M 40.5,66.5 C 40.0269,67.9063 39.0269,68.573 37.5,68.5C 37.9731,67.0937 38.9731,66.427 40.5,66.5 Z"/></g>
<g><path style="opacity:0.998" fill="#7d8df2" d="M 350.5,67.5 C 367.846,75.5639 385.18,83.7306 402.5,92C 403.537,93.8508 402.87,95.0175 400.5,95.5C 384.537,86.852 368.204,78.6854 351.5,71C 350.663,69.9887 350.33,68.8221 350.5,67.5 Z"/></g>
<g><path style="opacity:0.788" fill="#424242" d="M 8.5,84.5 C 7.54472,90.4093 7.21139,96.4093 7.5,102.5C 6.83533,99.6862 6.50199,96.6862 6.5,93.5C 6.51697,90.0866 7.18363,87.0866 8.5,84.5 Z"/></g>
<g><path style="opacity:0.998" fill="#7488fc" d="M 425.5,87.5 C 429.407,88.0937 432.074,90.0937 433.5,93.5C 433.5,98.1667 433.5,102.833 433.5,107.5C 406.435,122.54 379.102,137.207 351.5,151.5C 350.833,148.358 350.166,145.358 349.5,142.5C 374.28,128.941 399.28,115.608 424.5,102.5C 425.494,97.544 425.827,92.544 425.5,87.5 Z"/></g>
<g><path style="opacity:1" fill="#8694f3" d="M 12.5,105.5 C 36.3,118.234 59.9667,131.234 83.5,144.5C 83.5569,145.609 83.8902,146.609 84.5,147.5C 62.2208,135.358 39.8874,123.191 17.5,111C 14.9441,109.945 13.2775,108.112 12.5,105.5 Z"/></g>
<g><path style="opacity:0.248" fill="#bdbdbd" d="M 344.5,122.5 C 343.189,129.932 343.189,137.265 344.5,144.5C 344.44,145.043 344.107,145.376 343.5,145.5C 343.167,141.667 342.833,137.833 342.5,134C 342.51,129.771 343.177,125.938 344.5,122.5 Z"/></g>
<g><path style="opacity:1" fill="#7085f9" d="M 84.5,122.5 C 86.1828,125.187 88.5162,127.187 91.5,128.5C 91.825,136.019 91.4916,143.352 90.5,150.5C 88.1815,150.008 86.1815,149.008 84.5,147.5C 83.8902,146.609 83.5569,145.609 83.5,144.5C 84.4916,137.352 84.825,130.019 84.5,122.5 Z"/></g>
<g><path style="opacity:0.447" fill="#bfcbff" d="M 91.5,128.5 C 92.8199,136.01 92.8199,143.677 91.5,151.5C 90.8933,151.376 90.56,151.043 90.5,150.5C 91.4916,143.352 91.825,136.019 91.5,128.5 Z"/></g>
<g><path style="opacity:0.993" fill="#6b84fe" d="M 205.5,149.5 C 206.461,151.265 206.795,153.265 206.5,155.5C 208.833,155.5 211.167,155.5 213.5,155.5C 213.829,161.537 213.496,167.537 212.5,173.5C 211.914,173.709 211.414,174.043 211,174.5C 182.907,173.505 154.741,173.172 126.5,173.5C 126.5,171.5 126.5,169.5 126.5,167.5C 152.833,167.5 179.167,167.5 205.5,167.5C 205.5,161.5 205.5,155.5 205.5,149.5 Z"/></g>
</svg>
