<?xml version="1.0" encoding="UTF-8"?>
<!DOCTYPE svg PUBLIC "-//W3C//DTD SVG 1.1//EN" "http://www.w3.org/Graphics/SVG/1.1/DTD/svg11.dtd">
<svg xmlns="http://www.w3.org/2000/svg" version="1.1" width="434px" height="178px" style="shape-rendering:geometricPrecision; text-rendering:geometricPrecision; image-rendering:optimizeQuality; fill-rule:evenodd; clip-rule:evenodd" xmlns:xlink="http://www.w3.org/1999/xlink">
<g><path style="opacity:0.683" fill="#b8b6b6" d="M 138.5,2.5 C 131.5,2.5 124.5,2.5 117.5,2.5C 121.646,1.55175 125.98,0.885083 130.5,0.5C 133.438,0.567579 136.105,1.23425 138.5,2.5 Z"/></g>
<g><path style="opacity:1" fill="#fefefe" d="M 117.5,2.5 C 124.5,2.5 131.5,2.5 138.5,2.5C 138.5,2.83333 138.5,3.16667 138.5,3.5C 138.5,52.1667 138.5,100.833 138.5,149.5C 140.833,149.5 143.167,149.5 145.5,149.5C 164.659,150.497 183.993,150.83 203.5,150.5C 203.5,156.167 203.5,161.833 203.5,167.5C 174.833,167.5 146.167,167.5 117.5,167.5C 116.803,112.454 116.803,57.4535 117.5,2.5 Z"/></g>
<g><path style="opacity:1" fill="#fefefe" d="M 261.5,28.5 C 253.86,31.3228 246.527,34.6562 239.5,38.5C 238.391,38.5569 237.391,38.8902 236.5,39.5C 234.16,40.086 231.993,41.086 230,42.5C 229.5,36.1754 229.334,29.8421 229.5,23.5C 245.198,15.9887 261.198,8.98869 277.5,2.5C 279.262,2.64271 280.929,2.30937 282.5,1.5C 283.5,56.8293 283.833,112.163 283.5,167.5C 277.167,167.5 270.833,167.5 264.5,167.5C 264.5,120.833 264.5,74.1667 264.5,27.5C 263.209,27.2627 262.209,27.596 261.5,28.5 Z"/></g>
<g><path style="opacity:1" fill="#e2e2ed" d="M 287.5,6.5 C 287.5,6.83333 287.5,7.16667 287.5,7.5C 286.508,7.32842 285.842,7.66175 285.5,8.5C 284.501,59.9973 284.168,111.664 284.5,163.5C 284.5,164.5 284.5,165.5 284.5,166.5C 279.833,167.833 275.167,169.167 270.5,170.5C 268.299,169.434 265.965,168.767 263.5,168.5C 263.5,124.833 263.5,81.1667 263.5,37.5C 264.055,33.9878 263.388,30.9878 261.5,28.5C 262.209,27.596 263.209,27.2627 264.5,27.5C 264.5,74.1667 264.5,120.833 264.5,167.5C 270.833,167.5 277.167,167.5 283.5,167.5C 283.833,112.163 283.5,56.8293 282.5,1.5C 280.929,2.30937 279.262,2.64271 277.5,2.5C 279.438,0.837238 281.772,0.170572 284.5,0.5C 284.34,2.19919 284.506,3.86586 285,5.5C 285.671,6.25244 286.504,6.58577 287.5,6.5 Z"/></g>
<g><path style="opacity:1" fill="#b3bbef" d="M 285.5,8.5 C 286.627,55.8213 286.793,103.155 286,150.5C 285.825,155.019 285.325,159.353 284.5,163.5C 284.168,111.664 284.501,59.9973 285.5,8.5 Z"/></g>
<g><path style="opacity:1" fill="#c2c7f0" d="M 261.5,28.5 C 263.388,30.9878 264.055,33.9878 263.5,37.5C 262.041,37.4326 260.708,37.7659 259.5,38.5C 259.523,35.8787 258.189,34.5454 255.5,34.5C 249.979,35.2717 244.646,36.605 239.5,38.5C 246.527,34.6562 253.86,31.3228 261.5,28.5 Z"/></g>
<g><path style="opacity:1" fill="#9eabed" d="M 287.5,7.5 C 288.603,53.1582 288.769,98.8248 288,144.5C 287.639,151.199 286.972,157.865 286,164.5C 285.722,165.416 285.222,166.082 284.5,166.5C 284.5,165.5 284.5,164.5 284.5,163.5C 285.325,159.353 285.825,155.019 286,150.5C 286.793,103.155 286.627,55.8213 285.5,8.5C 285.842,7.66175 286.508,7.32842 287.5,7.5 Z"/></g>
<g><path style="opacity:0.677" fill="#b8b6b6" d="M 229.5,23.5 C 229.334,29.8421 229.5,36.1754 230,42.5C 231.993,41.086 234.16,40.086 236.5,39.5C 236.5,39.8333 236.5,40.1667 236.5,40.5C 235.662,40.8417 235.328,41.5084 235.5,42.5C 233.139,42.6741 230.806,43.0074 228.5,43.5C 228.789,39.8936 228.456,36.3936 227.5,33C 228.132,29.7296 228.799,26.5629 229.5,23.5 Z"/></g>
<g><path style="opacity:1" fill="#a7b1ed" d="M 259.5,38.5 C 256.838,39.4986 254.172,40.4986 251.5,41.5C 246.535,41.6539 241.535,41.3205 236.5,40.5C 236.5,40.1667 236.5,39.8333 236.5,39.5C 237.391,38.8902 238.391,38.5569 239.5,38.5C 244.646,36.605 249.979,35.2717 255.5,34.5C 258.189,34.5454 259.523,35.8787 259.5,38.5 Z"/></g>
<g><path style="opacity:1" fill="#fbfbfb" d="M 82.5,43.5 C 82.8306,50.8635 82.4973,58.1968 81.5,65.5C 70.2821,70.941 59.2821,76.6077 48.5,82.5C 40.4146,85.7093 32.7479,89.7093 25.5,94.5C 28.2777,97.2906 31.611,98.624 35.5,98.5C 50.6161,106.559 65.9494,114.392 81.5,122C 82.3805,122.708 83.0472,123.542 83.5,124.5C 82.5093,130.979 82.176,137.646 82.5,144.5C 68.2889,138.06 54.6222,130.56 41.5,122C 40.2068,121.51 38.8734,121.343 37.5,121.5C 35.1815,121.008 33.1815,120.008 31.5,118.5C 25.1403,113.987 18.4736,109.987 11.5,106.5C 7.62195,105.644 5.12195,103.311 4,99.5C 3.06247,94.4733 3.56247,89.64 5.5,85C 31,70.8333 56.5,56.6667 82,42.5C 82.3988,42.7284 82.5654,43.0618 82.5,43.5 Z"/></g>
<g><path style="opacity:1" fill="#808fdb" d="M 236.5,40.5 C 241.535,41.3205 246.535,41.6539 251.5,41.5C 246.459,44.3507 241.125,46.684 235.5,48.5C 235.5,46.5 235.5,44.5 235.5,42.5C 235.328,41.5084 235.662,40.8417 236.5,40.5 Z"/></g>
<g><path style="opacity:1" fill="#fafafb" d="M 423.5,87.5 C 423.827,92.544 423.494,97.544 422.5,102.5C 413.772,107.195 405.105,111.862 396.5,116.5C 378.323,126.089 359.989,135.422 341.5,144.5C 340.346,138.013 340.179,131.346 341,124.5C 359.623,113.699 378.79,104.032 398.5,95.5C 399.643,95.0919 400.643,94.4252 401.5,93.5C 384.204,84.3514 366.537,76.0181 348.5,68.5C 345.59,67.4609 343.09,65.7942 341,63.5C 340.076,56.392 340.409,49.392 342,42.5C 367.912,55.8725 393.745,69.3725 419.5,83C 421.635,83.8763 422.969,85.3763 423.5,87.5 Z"/></g>
<g><path style="opacity:1" fill="#bec4f0" d="M 138.5,3.5 C 139.341,4.92637 140.341,6.25971 141.5,7.5C 141.167,7.5 140.833,7.5 140.5,7.5C 139.834,11.9876 139.501,16.6543 139.5,21.5C 140.238,58.829 140.738,96.1623 141,133.5C 141.333,136.5 141.667,139.5 142,142.5C 143.13,144.933 144.296,147.266 145.5,149.5C 143.167,149.5 140.833,149.5 138.5,149.5C 138.5,100.833 138.5,52.1667 138.5,3.5 Z"/></g>
<g><path style="opacity:0.467" fill="#727eb1" d="M 287.5,7.5 C 287.5,7.16667 287.5,6.83333 287.5,6.5C 288.833,6.5 290.167,6.5 291.5,6.5C 291.832,62.3358 291.499,118.002 290.5,173.5C 290.5,118.167 290.5,62.8333 290.5,7.5C 289.5,7.5 288.5,7.5 287.5,7.5 Z"/></g>
<g><path style="opacity:1" fill="#8999e1" d="M 45.5,93.5 C 45.238,92.0222 45.5713,90.6888 46.5,89.5C 49.35,87.5729 52.0167,85.4062 54.5,83C 63.5629,78.8734 72.3962,74.3734 81,69.5C 81.6152,67.8839 82.6152,66.5505 84,65.5C 84.2186,60.4176 84.7186,55.4176 85.5,50.5C 86.6412,49.661 87.9745,48.9943 89.5,48.5C 90.6646,55.8107 90.8313,63.144 90,70.5C 75.3753,78.5624 60.5419,86.2291 45.5,93.5 Z"/></g>
<g><path style="opacity:1" fill="#b0b9ee" d="M 82.5,43.5 C 82.9174,46.1589 83.9174,48.4922 85.5,50.5C 84.7186,55.4176 84.2186,60.4176 84,65.5C 82.6152,66.5505 81.6152,67.8839 81,69.5C 72.3962,74.3734 63.5629,78.8734 54.5,83C 52.0167,85.4062 49.35,87.5729 46.5,89.5C 45.5713,90.6888 45.238,92.0222 45.5,93.5C 42.6223,95.1054 39.6223,96.4388 36.5,97.5C 34.592,92.8756 36.2586,90.3756 41.5,90C 43.7494,87.2563 46.0828,84.7563 48.5,82.5C 59.2821,76.6077 70.2821,70.941 81.5,65.5C 82.4973,58.1968 82.8306,50.8635 82.5,43.5 Z"/></g>
<g><path style="opacity:1" fill="#c7ccf2" d="M 48.5,82.5 C 46.0828,84.7563 43.7494,87.2563 41.5,90C 36.2586,90.3756 34.592,92.8756 36.5,97.5C 36.5,98.1667 36.1667,98.5 35.5,98.5C 31.611,98.624 28.2777,97.2906 25.5,94.5C 32.7479,89.7093 40.4146,85.7093 48.5,82.5 Z"/></g>
<g><path style="opacity:0.741" fill="#c7caea" d="M 348.5,68.5 C 366.537,76.0181 384.204,84.3514 401.5,93.5C 400.643,94.4252 399.643,95.0919 398.5,95.5C 398.047,94.5416 397.381,93.7083 396.5,93C 380.833,85.5 365.167,78 349.5,70.5C 348.702,70.0431 348.369,69.3764 348.5,68.5 Z"/></g>
<g><path style="opacity:0.549" fill="#c4c7ea" d="M 11.5,106.5 C 18.4736,109.987 25.1403,113.987 31.5,118.5C 24.1621,115.503 17.4954,111.503 11.5,106.5 Z"/></g>
<g><path style="opacity:0.565" fill="#babde4" d="M 37.5,121.5 C 38.8734,121.343 40.2068,121.51 41.5,122C 54.6222,130.56 68.2889,138.06 82.5,144.5C 82.176,137.646 82.5093,130.979 83.5,124.5C 83.8333,125.167 84.1667,125.833 84.5,126.5C 83.5098,132.645 83.1765,138.978 83.5,145.5C 82.209,145.263 81.209,145.596 80.5,146.5C 65.9674,138.404 51.6341,130.071 37.5,121.5 Z"/></g>
<g><path style="opacity:1" fill="#a6b1ed" d="M 423.5,87.5 C 424.71,87.9321 425.71,88.5987 426.5,89.5C 425.674,93.9819 425.174,98.6486 425,103.5C 423.543,105.658 421.71,107.491 419.5,109C 402.525,116.894 385.858,125.561 369.5,135C 366.479,135.849 363.479,136.683 360.5,137.5C 371.413,130.953 382.746,124.953 394.5,119.5C 395.425,118.643 396.092,117.643 396.5,116.5C 405.105,111.862 413.772,107.195 422.5,102.5C 423.494,97.544 423.827,92.544 423.5,87.5 Z"/></g>
<g><path style="opacity:1" fill="#8394e5" d="M 426.5,89.5 C 427.583,89.5394 428.583,89.8728 429.5,90.5C 430.833,96.5 430.833,102.5 429.5,108.5C 402.746,122.961 375.913,137.294 349,151.5C 348.505,149.527 348.338,147.527 348.5,145.5C 352.41,142.83 356.41,140.164 360.5,137.5C 363.479,136.683 366.479,135.849 369.5,135C 385.858,125.561 402.525,116.894 419.5,109C 421.71,107.491 423.543,105.658 425,103.5C 425.174,98.6486 425.674,93.9819 426.5,89.5 Z"/></g>
<g><path style="opacity:1" fill="#b9beea" d="M 396.5,116.5 C 396.092,117.643 395.425,118.643 394.5,119.5C 382.746,124.953 371.413,130.953 360.5,137.5C 356.41,140.164 352.41,142.83 348.5,145.5C 346.065,145.034 343.732,144.701 341.5,144.5C 359.989,135.422 378.323,126.089 396.5,116.5 Z"/></g>
<g><path style="opacity:1" fill="#97a0d4" d="M 140.5,7.5 C 142.186,49.799 143.019,92.1323 143,134.5C 143.202,136.256 143.702,137.922 144.5,139.5C 145.5,95.505 145.833,51.505 145.5,7.5C 146.499,54.6637 146.832,101.997 146.5,149.5C 146.167,149.5 145.833,149.5 145.5,149.5C 144.296,147.266 143.13,144.933 142,142.5C 141.667,139.5 141.333,136.5 141,133.5C 140.738,96.1623 140.238,58.829 139.5,21.5C 139.501,16.6543 139.834,11.9876 140.5,7.5 Z"/></g>
<g><path style="opacity:1" fill="#8f9fec" d="M 140.5,7.5 C 140.833,7.5 141.167,7.5 141.5,7.5C 142.833,7.5 144.167,7.5 145.5,7.5C 145.833,51.505 145.5,95.505 144.5,139.5C 143.702,137.922 143.202,136.256 143,134.5C 143.019,92.1323 142.186,49.799 140.5,7.5 Z"/></g>
<g><path style="opacity:1" fill="#8899ea" d="M 287.5,7.5 C 288.5,7.5 289.5,7.5 290.5,7.5C 290.5,62.8333 290.5,118.167 290.5,173.5C 283.833,173.5 277.167,173.5 270.5,173.5C 270.5,172.5 270.5,171.5 270.5,170.5C 275.167,169.167 279.833,167.833 284.5,166.5C 285.222,166.082 285.722,165.416 286,164.5C 286.972,157.865 287.639,151.199 288,144.5C 288.769,98.8248 288.603,53.1582 287.5,7.5 Z"/></g>
<g><path style="opacity:0.963" fill="#7a8ada" d="M 84.5,126.5 C 86.679,126.84 88.5123,127.84 90,129.5C 90.4996,136.492 90.6663,143.492 90.5,150.5C 86.9475,149.724 83.6142,148.391 80.5,146.5C 81.209,145.596 82.209,145.263 83.5,145.5C 83.1765,138.978 83.5098,132.645 84.5,126.5 Z"/></g>
<g><path style="opacity:0.556" fill="#d0cdcd" d="M 203.5,150.5 C 183.993,150.83 164.659,150.497 145.5,149.5C 145.833,149.5 146.167,149.5 146.5,149.5C 163.358,149.798 180.191,149.465 197,148.5C 199.4,148.802 201.566,149.468 203.5,150.5 Z"/></g>
<g><path style="opacity:1" fill="#d1d3ed" d="M 117.5,167.5 C 146.167,167.5 174.833,167.5 203.5,167.5C 177.167,168.167 150.833,168.833 124.5,169.5C 121.99,169.073 119.657,168.407 117.5,167.5 Z"/></g>
<g><path style="opacity:1" fill="#6f81d7" d="M 206.5,155.5 C 208.167,155.5 209.833,155.5 211.5,155.5C 211.5,161.5 211.5,167.5 211.5,173.5C 206.5,173.5 201.5,173.5 196.5,173.5C 199.218,172.896 201.551,171.563 203.5,169.5C 204.79,168.942 205.623,167.942 206,166.5C 206.499,162.848 206.665,159.182 206.5,155.5 Z"/></g>
<g><path style="opacity:1" fill="#a0abeb" d="M 203.5,150.5 C 203.972,152.531 204.972,154.198 206.5,155.5C 206.665,159.182 206.499,162.848 206,166.5C 205.623,167.942 204.79,168.942 203.5,169.5C 177.21,170.669 151.21,172.003 125.5,173.5C 124.566,172.432 124.232,171.099 124.5,169.5C 150.833,168.833 177.167,168.167 203.5,167.5C 203.5,161.833 203.5,156.167 203.5,150.5 Z"/></g>
<g><path style="opacity:0.879" fill="#8b9ceb" d="M 203.5,169.5 C 201.551,171.563 199.218,172.896 196.5,173.5C 172.833,173.5 149.167,173.5 125.5,173.5C 151.21,172.003 177.21,170.669 203.5,169.5 Z"/></g>
</svg>
